<?xml version="1.0" encoding="UTF-8"?>
<svg enable-background="new 0 0 97.4 61.691" viewBox="0 0 97.4 61.691" xmlns="http://www.w3.org/2000/svg">
 <path d="m23.67,54.152c5.229,0 21.686-.073 27.114,0 .105-17.739-10.087-8.34-10.213-15.268 0-7.774 4.91-16.515-3.561-16.526-7.932.013-3.129,8.885-3.257,16.526 0,7.055-10.083-2.471-10.083,15.268z" fill="#bfbfbf"/>
 <path d="m46.978,54.152c5.226,0 21.685-.073 27.115,0 .104-17.739-10.087-8.34-10.214-15.268 0-7.774 4.912-16.515-3.562-16.526-7.933.013-3.129,8.885-3.257,16.526 .001,7.055-10.084-2.471-10.082,15.268z" fill="#bfbfbf"/>
 <path d="m70.286,54.152c5.225,0 21.682-.073 27.113,0 .105-17.739-10.086-8.34-10.214-15.268 0-7.774 4.912-16.515-3.562-16.526-7.93.013-3.129,8.885-3.259,16.526 .001,7.055-10.081-2.471-10.078,15.268z" fill="#bfbfbf"/>
 <path d="m0,54.152c5.227,0 21.683-.073 27.114,0 .105-17.739-10.086-8.34-10.212-15.268 0-7.774 4.911-16.515-3.561-16.526-7.933.013-3.13,8.885-3.26,16.526 0,7.055-10.083-2.471-10.081,15.268z" fill="#bfbfbf"/>
 <path d="m29.514,61.184c7.467,0 30.976-.103 38.734,0 .148-25.343-14.408-11.912-14.591-21.81 0-11.104 7.016-23.589-5.087-23.608-11.33.019-4.472,12.692-4.654,23.608 0,10.081-14.404-3.531-14.402,21.81z" stroke="#000"/>
 <path d="m49,9.961 7.821-4.501h-3.95l.134-5.075-8.073-.072v5.149h-3.872c0-.003 7.809,4.499 7.94,4.499z" stroke="#000" stroke-linejoin="round" stroke-width=".625"/>
</svg>
