<?xml version="1.0" encoding="UTF-8"?>
<svg viewBox="0 0 492.42859 278.24094" xmlns="http://www.w3.org/2000/svg" xmlns:xlink="http://www.w3.org/1999/xlink">
 <defs>
  <filter id="d">
   <feGaussianBlur stdDeviation="1.84528"/>
  </filter>
  <filter id="a">
   <feGaussianBlur stdDeviation="2.3717"/>
  </filter>
  <linearGradient id="b">
   <stop stop-color="#dfdfdf" offset="0"/>
   <stop stop-color="#e4e4e4" offset="1"/>
  </linearGradient>
  <linearGradient id="c">
   <stop stop-color="#eaeaea" offset="0"/>
   <stop stop-color="#d6d6d6" offset="1"/>
  </linearGradient>
  <linearGradient id="i" x1="60.929" x2="458.57" y1="386.15" y2="596.65" gradientTransform="matrix(.83918 0 0 .98047 56.975 4.3116)" gradientUnits="userSpaceOnUse">
   <stop offset="0"/>
   <stop stop-color="#555753" offset="1"/>
  </linearGradient>
  <linearGradient id="h" x1="424" x2="422" y1="457.36" y2="537.86" gradientTransform="matrix(.82312 -.11262 .11262 .82312 -75.607 107.98)" gradientUnits="userSpaceOnUse" xlink:href="#c"/>
  <linearGradient id="g" x1="105.46" x2="261.6" gradientUnits="userSpaceOnUse" xlink:href="#b" spreadMethod="reflect"/>
  <linearGradient id="f" x1="234.05" x2="422" gradientUnits="userSpaceOnUse" xlink:href="#b" spreadMethod="reflect"/>
  <linearGradient id="e" x1="423.33" x2="421.33" y1="455.02" y2="535.52" gradientUnits="userSpaceOnUse" xlink:href="#c"/>
 </defs>
 <g transform="translate(-108.07 -382.96)" stroke="#d3d7cf">
  <path d="m141.59 383.41h425.39a33.066 33.066 0 0 1 33.066 33.066v211.2a33.066 33.066 0 0 1 -33.066 33.066h-425.39a33.066 33.066 0 0 1 -33.066 -33.066v-211.2a33.066 33.066 0 0 1 33.066 -33.066" fill="url(#i)" opacity="0" stroke-linecap="round" stroke-linejoin="round" stroke-width=".90708"/>
  <path transform="matrix(.82312 -.11262 .11262 .82312 -74.791 109.83)" d="m266 463.86h324a4 4 0 0 1 4 4v149a4 4 0 0 1 -4 4h-324a4 4 0 0 1 -4 -4v-149a4 4 0 0 1 4 -4" filter="url(#d)" opacity=".32"/>
  <path transform="matrix(.99077,-.13556,.13556,.99077,0,0)" d="m127.02 476.99h269.17a3.3232 3.3232 0 0 1 3.3232 3.3232v123.79a3.3232 3.3232 0 0 1 -3.3232 3.3232h-269.17a3.3232 3.3232 0 0 1 -3.3232 -3.3232v-123.79a3.3232 3.3232 0 0 1 3.3232 -3.3232" fill="url(#g)" stroke-width=".83079"/>
  <path transform="matrix(.82312 -.11262 -.11262 -.82312 52.664 1041.4)" d="m260.5 518.36h324c2.216 0 4 1.784 4 4l-166 94.5-166-94.5c0-2.216 1.784-4 4-4z" filter="url(#a)" opacity=".32"/>
  <path d="m207.79 584.24 266.69-36.489c1.824-0.24957 3.0916-1.9189 2.842-3.743l-148.53-55.984-124.74 93.373c0.24956 1.824 1.9189 3.0916 3.743 2.842z" fill="#e1e1e1" stroke-width=".83079"/>
  <path transform="matrix(.82312 -.11262 .11262 .82312 -74.791 109.83)" d="m260 456.36h324c2.216 0 4 1.784 4 4l-165 83-167-83c0-2.216 1.784-4 4-4z" filter="url(#a)" opacity=".32"/>
  <path d="m189.8 454.34 266.69-36.489c1.824-0.24957 3.4934 1.018 3.743 2.842l-127.97 82.075-145.31-44.685c-0.24956-1.824 1.018-3.4934 2.842-3.743z" fill="url(#h)" stroke-width=".83079"/>
  <path transform="matrix(.99077,-.13556,.13556,.99077,0,0)" d="m127.02 476.99h269.17a3.3232 3.3232 0 0 1 3.3232 3.3232v123.79a3.3232 3.3232 0 0 1 -3.3232 3.3232h-269.17a3.3232 3.3232 0 0 1 -3.3232 -3.3232v-123.79a3.3232 3.3232 0 0 1 3.3232 -3.3232" opacity=".03" stroke-width=".83079"/>
  <g transform="matrix(.82966 -.0432 .0432 .82966 -6.1649 142.48)">
   <path d="m266 463.86h324a4 4 0 0 1 4 4v149a4 4 0 0 1 -4 4h-324a4 4 0 0 1 -4 -4v-149a4 4 0 0 1 4 -4" filter="url(#d)" opacity=".32"/>
   <path d="m260 455.36h324a4 4 0 0 1 4 4v149a4 4 0 0 1 -4 4h-324a4 4 0 0 1 -4 -4v-149a4 4 0 0 1 4 -4" fill="url(#f)"/>
   <path transform="matrix(1 0 0 -1 0 1131.7)" d="m260.5 518.36h324c2.216 0 4 1.784 4 4l-166 94.5-166-94.5c0-2.216 1.784-4 4-4z" filter="url(#a)" opacity=".32"/>
   <path d="m259.59 611.86h324c2.216 0 4-1.784 4-4l-168-91-164 91c0 2.216 1.784 4 4 4z" fill="#e1e1e1"/>
   <path d="m260 456.36h324c2.216 0 4 1.784 4 4l-165 83-167-83c0-2.216 1.784-4 4-4z" filter="url(#a)" opacity=".32"/>
   <path d="m259.33 454.02h324c2.216 0 4 1.784 4 4l-166 77-166-77c0-2.216 1.784-4 4-4z" fill="url(#e)"/>
  </g>
 </g>
</svg>
