<svg xmlns="http://www.w3.org/2000/svg"><symbol id="bars" viewBox="0 0 1536 1280"><path fill="currentColor" d="M1536 1088v128q0 26-19 45t-45 19H64q-26 0-45-19t-19-45v-128q0-26 19-45t45-19h1408q26 0 45 19t19 45zm0-512v128q0 26-19 45t-45 19H64q-26 0-45-19T0 704V576q0-26 19-45t45-19h1408q26 0 45 19t19 45zm0-512v128q0 26-19 45t-45 19H64q-26 0-45-19T0 192V64q0-26 19-45T64 0h1408q26 0 45 19t19 45z"/></symbol><symbol id="briefcase" viewBox="0 0 1792 1536"><path fill="currentColor" d="M640 256h512V128H640v128zm1152 640v480q0 66-47 113t-113 47H160q-66 0-113-47T0 1376V896h672v160q0 26 19 45t45 19h320q26 0 45-19t19-45V896h672zm-768 0v128H768V896h256zm768-480v384H0V416q0-66 47-113t113-47h352V96q0-40 28-68t68-28h576q40 0 68 28t28 68v160h352q66 0 113 47t47 113z"/></symbol><symbol id="facebook" viewBox="0 0 1536 1536"><path fill="currentColor" d="M1451 0q35 0 60 25t25 60v1366q0 35-25 60t-60 25h-391V941h199l30-232h-229V561q0-56 23.5-84t91.5-28l122-1V241q-63-9-178-9-136 0-217.5 80T820 538v171H620v232h200v595H85q-35 0-60-25t-25-60V85q0-35 25-60T85 0h1366z"/></symbol><symbol id="github" viewBox="0 0 1536 1504"><path fill="currentColor" d="M768 0q209 0 385.5 103T1433 382.5 1536 768q0 251-146.5 451.5T1011 1497q-27 5-40-7t-13-30q0-3 .5-76.5t.5-134.5q0-97-52-142 57-6 102.5-18t94-39 81-66.5 53-105T1258 728q0-119-79-206 37-91-8-204-28-9-81 11t-92 44l-38 24q-93-26-192-26t-192 26q-16-11-42.5-27T450 331.5 365 318q-45 113-8 204-79 87-79 206 0 85 20.5 150T351 983t80.5 67 94 39 102.5 18q-39 36-49 103-21 10-45 15t-57 5-65.5-21.5T356 1146q-19-32-48.5-52t-49.5-24l-20-3q-21 0-29 4.5t-5 11.5 9 14 13 12l7 5q22 10 43.5 38t31.5 51l10 23q13 38 44 61.5t67 30 69.5 7 55.5-3.5l23-4q0 38 .5 88.5t.5 54.5q0 18-13 30t-40 7q-232-77-378.5-277.5T0 768q0-209 103-385.5T382.5 103 768 0zM291 1103q3-7-7-12-10-3-13 2-3 7 7 12 9 6 13-2zm31 34q7-5-2-16-10-9-16-3-7 5 2 16 10 10 16 3zm30 45q9-7 0-19-8-13-17-6-9 5 0 18t17 7zm42 42q8-8-4-19-12-12-20-3-9 8 4 19 12 12 20 3zm57 25q3-11-13-16-15-4-19 7t13 15q15 6 19-6zm63 5q0-13-17-11-16 0-16 11 0 13 17 11 16 0 16-11zm58-10q-2-11-18-9-16 3-14 15t18 8 14-14z"/></symbol><symbol id="home" viewBox="0 0 1664 1312"><path fill="currentColor" d="M1408 768v480q0 26-19 45t-45 19H960V928H704v384H320q-26 0-45-19t-19-45V768q0-1 .5-3t.5-3l575-474 575 474q1 2 1 6zm223-69l-62 74q-8 9-21 11h-3q-13 0-21-7L832 200 140 777q-12 8-24 7-13-2-21-11l-62-74q-8-10-7-23.5T37 654L756 55q32-26 76-26t76 26l244 204V64q0-14 9-23t23-9h192q14 0 23 9t9 23v408l219 182q10 8 11 21.5t-7 23.5z"/></symbol><symbol id="linkedin" viewBox="0 0 1536 1504"><path fill="currentColor" d="M349 497v991H19V497h330zm21-306q1 73-50.5 122T184 362h-2q-82 0-132-49T0 191q0-74 51.5-122.5T186 20t133 48.5T370 191zm1166 729v568h-329V958q0-105-40.5-164.5T1040 734q-63 0-105.5 34.5T871 854q-11 30-11 81v553H531q2-399 2-647t-1-296l-1-48h329v144h-2q20-32 41-56t56.5-52 87-43.5T1157 474q171 0 275 113.5T1536 920z"/></symbol><symbol id="user" viewBox="0 0 1280 1536"><path fill="currentColor" d="M1280 1271q0 109-62.5 187t-150.5 78H213q-88 0-150.5-78T0 1271q0-85 8.5-160.5t31.5-152 58.5-131 94-89T327 704q131 128 313 128t313-128q76 0 134.5 34.5t94 89 58.5 131 31.5 152 8.5 160.5zm-256-887q0 159-112.5 271.5T640 768 368.5 655.5 256 384t112.5-271.5T640 0t271.5 112.5T1024 384z"/></symbol><symbol id="youtube" viewBox="0 0 1792 1280"><path fill="currentColor" d="M711 872l484-250-484-253v503zM896 10q168 0 324.5 4.5T1450 24l73 4q1 0 17 1.5t23 3 23.5 4.5 28.5 8 28 13 31 19.5 29 26.5q6 6 15.5 18.5t29 58.5 26.5 101q8 64 12.5 136.5T1792 532v176q1 145-18 290-7 55-25 99.5t-32 61.5l-14 17q-14 15-29 26.5t-31 19-28 12.5-28.5 8-24 4.5-23 3-16.5 1.5q-251 19-627 19-207-2-359.5-6.5T336 1256l-49-4-36-4q-36-5-54.5-10t-51-21-56.5-41q-6-6-15.5-18.5t-29-58.5T18 998q-8-64-12.5-136.5T0 748V572q-1-145 18-290 7-55 25-99.5T75 121l14-17q14-15 29-26.5T149 58t28-13 28.5-8 23.5-4.5 23-3 17-1.5q251-18 627-18z"/></symbol><symbol id="paper-plane" viewBox="0 0 1792 1792"><path fill="currentColor" d="M1764 11q33 24 27 64l-256 1536q-5 29-32 45-14 8-31 8-11 0-24-5l-453-185-242 295q-18 23-49 23-13 0-22-4-19-7-30.5-23.5T640 1728v-349l864-1059-1069 925-395-162q-37-14-40-55-2-40 32-59L1696 9q15-9 32-9 20 0 36 11z"/></symbol><symbol id="skills" viewBox="0 0 1000 1000"><path fill="currentColor" d="M646.9 161.6c-7.2 0-13.3 2.6-18.6 7.8-5.2 5.2-7.9 11.4-7.9 18.6 0 7.3 2.6 13.5 7.7 18.7 5.2 5.2 11.4 7.7 18.7 7.7 7.3 0 13.5-2.6 18.7-7.7 5.2-5.2 7.7-11.4 7.7-18.7 0-7.2-2.6-13.4-7.8-18.6-5.1-5.1-11.3-7.8-18.5-7.8zm0 211.4c-7.2 0-13.3 2.6-18.6 7.9-5.2 5.2-7.9 11.4-7.9 18.6 0 7.3 2.6 13.5 7.7 18.7 5.2 5.2 11.4 7.7 18.7 7.7 7.3 0 13.5-2.6 18.7-7.7 5.2-5.2 7.7-11.4 7.7-18.7 0-7.1-2.6-13.3-7.8-18.6-5.1-5.3-11.3-7.9-18.5-7.9zM462 240.9c-14.6 0-27 5.2-37.4 15.5-10.3 10.3-15.5 22.8-15.5 37.4 0 14.6 5.2 27 15.5 37.4 10.3 10.3 22.8 15.5 37.4 15.5 14.6 0 27-5.2 37.4-15.5 10.3-10.3 15.5-22.8 15.5-37.4 0-14.6-5.2-27-15.5-37.4-10.4-10.3-22.9-15.5-37.4-15.5z"/><path fill="currentColor" d="M794.4 129.4C739.5 68.2 666.9 11.3 487.6 10c-70-.5-176.9 16-260.1 104-50.3 53.2-87.5 120.2-76.8 230 2.3 23.8 36.3 51.3 12.4 97.4 0 0-51.3 90.2-49.5 105.3 0 0-.9 27.5 41.6 28.3 0 0 10.6 1.3 7.6 24.8l-.5 34.1s1.3 10.2 19.9 16.4c0 0 3.5 3.5-1.7 10.2 0 0-9.8 10.9 7 34.5 6.2 8.6 16.3 19.5 10.2 41.6 0 0-7.9 43 8.9 53.1 0 0 19.1 22.7 96 13.2 26.8-3.3 76.6-16.3 106.2 20.9 0 0 70.8 134.5 76.1 166.3 0 0 120.9-215 268.2-248.2 0 0-35.9-81 37.2-185.9 0 0 91.5-120.8 94.3-187.2-.2-.1 24-111.9-90.2-239.4zM536.1 402.5c-1.5 0-3-.5-4.3-1.4L508 382.5c-5.1 2.6-10.4 4.7-15.9 6.4-1.5 14.9-3.1 25.5-4.7 32-1 3.3-3 5-6.2 5h-38.4c-1.5 0-2.9-.5-4.1-1.5-1.2-1-1.9-2.2-2.1-3.6l-4.7-31.6c-4.7-1.4-9.8-3.5-15.5-6.4L392 401.1c-1 1-2.3 1.4-4.1 1.4-1.5 0-3-.5-4.3-1.6-19.8-18.3-29.7-29.3-29.7-33 0-1.2.5-2.5 1.4-3.9 1.4-1.9 4.2-5.6 8.5-10.9 4.3-5.4 7.5-9.6 9.7-12.6-3.2-6.1-5.6-11.7-7.2-16.9l-31.4-5c-1.4-.1-2.5-.8-3.5-2s-1.4-2.5-1.4-4v-38.2c0-1.4.5-2.7 1.4-4 1-1.3 2.1-2 3.3-2.2l32-5c1.5-4.8 3.7-10 6.6-15.7-4.7-6.6-10.9-14.5-18.6-23.7-1-1.5-1.4-2.9-1.4-4.1 0-1.7.5-3 1.4-4.1 3-4.1 8.7-10.3 16.9-18.4 8.3-8.1 13.7-12.2 16.3-12.2 1.5 0 3 .5 4.3 1.4l23.7 18.6c4.7-2.5 10-4.7 15.9-6.6 1.5-14.9 3.1-25.5 4.7-31.8 1-3.3 3-5 6.2-5h38.4c1.5 0 2.9.5 4.1 1.5 1.2 1 1.9 2.2 2.1 3.6l4.7 31.6c4.7 1.4 9.8 3.5 15.5 6.4l24.4-18.4c1.1-1 2.5-1.4 4.1-1.4 1.5 0 3 .5 4.3 1.7 19.8 18.3 29.7 29.3 29.7 33 0 1.2-.5 2.5-1.4 3.9-1.7 2.2-4.5 5.9-8.7 11.2-4.1 5.2-7.2 9.4-9.3 12.4 3.2 6.6 5.5 12.2 7 16.9l31.4 4.8c1.4.3 2.5 1 3.5 2.2 1 1.2 1.4 2.5 1.4 4v38.2c0 1.4-.5 2.7-1.4 4-1 1.3-2.1 2-3.3 2.2l-32 5c-1.5 4.8-3.7 10-6.6 15.7 4.7 6.6 10.9 14.5 18.6 23.7 1 1.4 1.4 2.8 1.4 4.1 0 1.7-.5 3-1.4 3.9-3.2 4.1-8.8 10.3-17 18.5-8.1 8.1-13.5 12.2-16.1 12.2zm190.1 11.4c0 2.2-10.3 4.3-30.8 6.4-1.7 3.7-3.7 7.3-6.2 10.7 7 15.6 10.5 25 10.5 28.5 0 .5-.3 1-.8 1.4-16.8 9.8-25.3 14.7-25.6 14.7-1.1 0-4.3-3.2-9.5-9.7-5.2-6.5-8.8-11.1-10.7-14-2.8.3-4.8.4-6.2.4-1.4 0-3.4-.1-6.2-.4-1.9 2.9-5.5 7.6-10.7 14-5.2 6.5-8.4 9.7-9.5 9.7-.3 0-8.8-4.9-25.6-14.7-.6-.4-.8-.9-.8-1.4 0-3.4 3.5-12.9 10.5-28.5-2.5-3.4-4.5-7-6.2-10.7-20.5-2.1-30.8-4.2-30.8-6.4V385c0-2.2 10.2-4.3 30.8-6.4 1.8-4 3.9-7.6 6.2-10.7-7-15.6-10.5-25-10.5-28.5 0-.5.3-1 .8-1.4.5-.3 2.9-1.6 7.2-4.1 4.3-2.5 8.3-4.8 12.2-7 3.8-2.2 5.9-3.3 6.2-3.3 1.1 0 4.3 3.2 9.5 9.6 5.2 6.4 8.8 11 10.7 13.9 2.8-.3 4.8-.4 6.2-.4s3.4.1 6.2.4c7-9.8 13.4-17.5 19-23.1l1.2-.4c.5 0 9.1 4.8 25.6 14.4.6.4.8.9.8 1.4 0 3.4-3.5 12.9-10.5 28.5 2.3 3.2 4.4 6.7 6.2 10.7 20.5 2.1 30.8 4.2 30.8 6.4v28.9zm0-211.4c0 2.2-10.3 4.3-30.8 6.4-1.7 3.7-3.7 7.3-6.2 10.7 7 15.6 10.5 25 10.5 28.5 0 .5-.3 1-.8 1.4-16.8 9.8-25.3 14.7-25.6 14.7-1.1 0-4.3-3.2-9.5-9.7-5.2-6.5-8.8-11.2-10.7-14-2.8.3-4.8.4-6.2.4-1.4 0-3.4-.1-6.2-.4-1.9 2.9-5.5 7.6-10.7 14-5.2 6.5-8.4 9.7-9.5 9.7-.3 0-8.8-4.9-25.6-14.7-.6-.4-.8-.9-.8-1.4 0-3.4 3.5-12.9 10.5-28.5-2.5-3.4-4.5-7-6.2-10.7-20.5-2.1-30.8-4.2-30.8-6.4v-28.9c0-2.2 10.2-4.3 30.8-6.4 1.8-4 3.9-7.6 6.2-10.7-7-15.6-10.5-25.1-10.5-28.5 0-.5.3-1 .8-1.4.5-.3 2.9-1.6 7.2-4.1 4.3-2.5 8.3-4.8 12.2-7 3.8-2.2 5.9-3.3 6.2-3.3 1.1 0 4.3 3.2 9.5 9.6 5.2 6.4 8.8 11 10.7 13.9 2.8-.3 4.8-.4 6.2-.4s3.4.1 6.2.4c7-9.8 13.4-17.5 19-23.1l1.2-.4c.5 0 9.1 4.8 25.6 14.4.6.4.8.9.8 1.4 0 3.4-3.5 12.9-10.5 28.5 2.3 3.2 4.4 6.7 6.2 10.7 20.5 2.1 30.8 4.2 30.8 6.4v28.9z"/></symbol></svg>