<svg xmlns="http://www.w3.org/2000/svg" width="1000" height="1000" viewBox="0 0 1000 1000"><path fill="currentColor" d="M646.9 161.6c-7.2 0-13.3 2.6-18.6 7.8-5.2 5.2-7.9 11.4-7.9 18.6 0 7.3 2.6 13.5 7.7 18.7 5.2 5.2 11.4 7.7 18.7 7.7 7.3 0 13.5-2.6 18.7-7.7 5.2-5.2 7.7-11.4 7.7-18.7 0-7.2-2.6-13.4-7.8-18.6-5.1-5.1-11.3-7.8-18.5-7.8zm0 211.4c-7.2 0-13.3 2.6-18.6 7.9-5.2 5.2-7.9 11.4-7.9 18.6 0 7.3 2.6 13.5 7.7 18.7 5.2 5.2 11.4 7.7 18.7 7.7 7.3 0 13.5-2.6 18.7-7.7 5.2-5.2 7.7-11.4 7.7-18.7 0-7.1-2.6-13.3-7.8-18.6-5.1-5.3-11.3-7.9-18.5-7.9zM462 240.9c-14.6 0-27 5.2-37.4 15.5-10.3 10.3-15.5 22.8-15.5 37.4 0 14.6 5.2 27 15.5 37.4 10.3 10.3 22.8 15.5 37.4 15.5 14.6 0 27-5.2 37.4-15.5 10.3-10.3 15.5-22.8 15.5-37.4 0-14.6-5.2-27-15.5-37.4-10.4-10.3-22.9-15.5-37.4-15.5z"/><path fill="currentColor" d="M794.4 129.4C739.5 68.2 666.9 11.3 487.6 10c-70-.5-176.9 16-260.1 104-50.3 53.2-87.5 120.2-76.8 230 2.3 23.8 36.3 51.3 12.4 97.4 0 0-51.3 90.2-49.5 105.3 0 0-.9 27.5 41.6 28.3 0 0 10.6 1.3 7.6 24.8l-.5 34.1s1.3 10.2 19.9 16.4c0 0 3.5 3.5-1.7 10.2 0 0-9.8 10.9 7 34.5 6.2 8.6 16.3 19.5 10.2 41.6 0 0-7.9 43 8.9 53.1 0 0 19.1 22.7 96 13.2 26.8-3.3 76.6-16.3 106.2 20.9 0 0 70.8 134.5 76.1 166.3 0 0 120.9-215 268.2-248.2 0 0-35.9-81 37.2-185.9 0 0 91.5-120.8 94.3-187.2-.2-.1 24-111.9-90.2-239.4zM536.1 402.5c-1.5 0-3-.5-4.3-1.4L508 382.5c-5.1 2.6-10.4 4.7-15.9 6.4-1.5 14.9-3.1 25.5-4.7 32-1 3.3-3 5-6.2 5h-38.4c-1.5 0-2.9-.5-4.1-1.5-1.2-1-1.9-2.2-2.1-3.6l-4.7-31.6c-4.7-1.4-9.8-3.5-15.5-6.4L392 401.1c-1 1-2.3 1.4-4.1 1.4-1.5 0-3-.5-4.3-1.6-19.8-18.3-29.7-29.3-29.7-33 0-1.2.5-2.5 1.4-3.9 1.4-1.9 4.2-5.6 8.5-10.9 4.3-5.4 7.5-9.6 9.7-12.6-3.2-6.1-5.6-11.7-7.2-16.9l-31.4-5c-1.4-.1-2.5-.8-3.5-2s-1.4-2.5-1.4-4v-38.2c0-1.4.5-2.7 1.4-4 1-1.3 2.1-2 3.3-2.2l32-5c1.5-4.8 3.7-10 6.6-15.7-4.7-6.6-10.9-14.5-18.6-23.7-1-1.5-1.4-2.9-1.4-4.1 0-1.7.5-3 1.4-4.1 3-4.1 8.7-10.3 16.9-18.4 8.3-8.1 13.7-12.2 16.3-12.2 1.5 0 3 .5 4.3 1.4l23.7 18.6c4.7-2.5 10-4.7 15.9-6.6 1.5-14.9 3.1-25.5 4.7-31.8 1-3.3 3-5 6.2-5h38.4c1.5 0 2.9.5 4.1 1.5 1.2 1 1.9 2.2 2.1 3.6l4.7 31.6c4.7 1.4 9.8 3.5 15.5 6.4l24.4-18.4c1.1-1 2.5-1.4 4.1-1.4 1.5 0 3 .5 4.3 1.7 19.8 18.3 29.7 29.3 29.7 33 0 1.2-.5 2.5-1.4 3.9-1.7 2.2-4.5 5.9-8.7 11.2-4.1 5.2-7.2 9.4-9.3 12.4 3.2 6.6 5.5 12.2 7 16.9l31.4 4.8c1.4.3 2.5 1 3.5 2.2 1 1.2 1.4 2.5 1.4 4v38.2c0 1.4-.5 2.7-1.4 4-1 1.3-2.1 2-3.3 2.2l-32 5c-1.5 4.8-3.7 10-6.6 15.7 4.7 6.6 10.9 14.5 18.6 23.7 1 1.4 1.4 2.8 1.4 4.1 0 1.7-.5 3-1.4 3.9-3.2 4.1-8.8 10.3-17 18.5-8.1 8.1-13.5 12.2-16.1 12.2zm190.1 11.4c0 2.2-10.3 4.3-30.8 6.4-1.7 3.7-3.7 7.3-6.2 10.7 7 15.6 10.5 25 10.5 28.5 0 .5-.3 1-.8 1.4-16.8 9.8-25.3 14.7-25.6 14.7-1.1 0-4.3-3.2-9.5-9.7-5.2-6.5-8.8-11.1-10.7-14-2.8.3-4.8.4-6.2.4-1.4 0-3.4-.1-6.2-.4-1.9 2.9-5.5 7.6-10.7 14-5.2 6.5-8.4 9.7-9.5 9.7-.3 0-8.8-4.9-25.6-14.7-.6-.4-.8-.9-.8-1.4 0-3.4 3.5-12.9 10.5-28.5-2.5-3.4-4.5-7-6.2-10.7-20.5-2.1-30.8-4.2-30.8-6.4V385c0-2.2 10.2-4.3 30.8-6.4 1.8-4 3.9-7.6 6.2-10.7-7-15.6-10.5-25-10.5-28.5 0-.5.3-1 .8-1.4.5-.3 2.9-1.6 7.2-4.1 4.3-2.5 8.3-4.8 12.2-7 3.8-2.2 5.9-3.3 6.2-3.3 1.1 0 4.3 3.2 9.5 9.6 5.2 6.4 8.8 11 10.7 13.9 2.8-.3 4.8-.4 6.2-.4s3.4.1 6.2.4c7-9.8 13.4-17.5 19-23.1l1.2-.4c.5 0 9.1 4.8 25.6 14.4.6.4.8.9.8 1.4 0 3.4-3.5 12.9-10.5 28.5 2.3 3.2 4.4 6.7 6.2 10.7 20.5 2.1 30.8 4.2 30.8 6.4v28.9zm0-211.4c0 2.2-10.3 4.3-30.8 6.4-1.7 3.7-3.7 7.3-6.2 10.7 7 15.6 10.5 25 10.5 28.5 0 .5-.3 1-.8 1.4-16.8 9.8-25.3 14.7-25.6 14.7-1.1 0-4.3-3.2-9.5-9.7-5.2-6.5-8.8-11.2-10.7-14-2.8.3-4.8.4-6.2.4-1.4 0-3.4-.1-6.2-.4-1.9 2.9-5.5 7.6-10.7 14-5.2 6.5-8.4 9.7-9.5 9.7-.3 0-8.8-4.9-25.6-14.7-.6-.4-.8-.9-.8-1.4 0-3.4 3.5-12.9 10.5-28.5-2.5-3.4-4.5-7-6.2-10.7-20.5-2.1-30.8-4.2-30.8-6.4v-28.9c0-2.2 10.2-4.3 30.8-6.4 1.8-4 3.9-7.6 6.2-10.7-7-15.6-10.5-25.1-10.5-28.5 0-.5.3-1 .8-1.4.5-.3 2.9-1.6 7.2-4.1 4.3-2.5 8.3-4.8 12.2-7 3.8-2.2 5.9-3.3 6.2-3.3 1.1 0 4.3 3.2 9.5 9.6 5.2 6.4 8.8 11 10.7 13.9 2.8-.3 4.8-.4 6.2-.4s3.4.1 6.2.4c7-9.8 13.4-17.5 19-23.1l1.2-.4c.5 0 9.1 4.8 25.6 14.4.6.4.8.9.8 1.4 0 3.4-3.5 12.9-10.5 28.5 2.3 3.2 4.4 6.7 6.2 10.7 20.5 2.1 30.8 4.2 30.8 6.4v28.9z"/></svg>